<svg width="12" height="12" viewBox="0 0 12 12" fill="none" xmlns="http://www.w3.org/2000/svg">
<path d="M6.96931 8.39807C6.94581 8.3748 6.91409 8.36175 6.88103 8.36175C6.84797 8.36175 6.81624 8.3748 6.79275 8.39807L4.97718 10.2138C4.13658 11.0544 2.71788 11.1435 1.78979 10.2138C0.860128 9.28405 0.949188 7.86679 1.78979 7.02612L3.60535 5.21041C3.65379 5.16197 3.65379 5.08228 3.60535 5.03384L2.9835 4.41193C2.96 4.38867 2.92828 4.37562 2.89522 4.37562C2.86216 4.37562 2.83043 4.38867 2.80694 4.41193L0.991374 6.22765C-0.330458 7.54959 -0.330458 9.68875 0.991374 11.0091C2.31321 12.3295 4.4522 12.3311 5.77247 11.0091L7.58803 9.19342C7.63647 9.14498 7.63647 9.06529 7.58803 9.01685L6.96931 8.39807ZM11.0098 0.991455C9.68797 -0.330485 7.54897 -0.330485 6.2287 0.991455L4.41158 2.80717C4.38831 2.83066 4.37526 2.86239 4.37526 2.89545C4.37526 2.92852 4.38831 2.96024 4.41158 2.98374L5.03187 3.60408C5.0803 3.65252 5.15999 3.65252 5.20842 3.60408L7.02399 1.78837C7.86459 0.947702 9.28329 0.858636 10.2114 1.78837C11.141 2.7181 11.052 4.13536 10.2114 4.97602L8.39582 6.79174C8.37256 6.81523 8.35951 6.84696 8.35951 6.88002C8.35951 6.91309 8.37256 6.94481 8.39582 6.96831L9.01768 7.59021C9.06611 7.63865 9.1458 7.63865 9.19423 7.59021L11.0098 5.7745C12.3301 4.45256 12.3301 2.31339 11.0098 0.991455V0.991455ZM7.53335 3.81815C7.50986 3.79489 7.47813 3.78184 7.44507 3.78184C7.41201 3.78184 7.38028 3.79489 7.35679 3.81815L3.81784 7.35583C3.79458 7.37932 3.78153 7.41105 3.78153 7.44411C3.78153 7.47718 3.79458 7.5089 3.81784 7.5324L4.43657 8.15118C4.48501 8.19962 4.5647 8.19962 4.61313 8.15118L8.15052 4.61351C8.19895 4.56507 8.19895 4.48538 8.15052 4.43694L7.53335 3.81815Z" fill="#858EAD"/>
</svg>
