<svg width="24" height="24" viewBox="0 0 24 24" fill="none" xmlns="http://www.w3.org/2000/svg">
<rect width="24" height="24" rx="12" fill="#2C353D"/>
<path d="M19.9988 12.7929C19.7929 14.8157 18.8262 16.6847 17.2944 18.0217C15.7627 19.3589 13.7801 20.0643 11.748 19.9954C9.71586 19.9264 7.78568 19.0882 6.34823 17.6503C4.91061 16.2123 4.07298 14.2819 4.00453 12.2498C3.93622 10.2177 4.64221 8.23563 5.97991 6.70424C7.31762 5.17302 9.18701 4.20693 11.2099 4.00162C11.3338 3.98788 11.4503 4.06281 11.4891 4.1812C11.528 4.29959 11.4784 4.42897 11.3705 4.49129C10.3319 5.11046 9.50713 6.03188 9.00645 7.13234C8.50577 8.23295 8.35301 9.46007 8.56859 10.6497C8.78428 11.8394 9.35801 12.9349 10.2132 13.7897C11.0683 14.6445 12.1641 15.2179 13.3539 15.4331C14.5437 15.6484 15.7709 15.4952 16.8714 14.9942C17.9718 14.4932 18.893 13.6681 19.5119 12.6294C19.5755 12.5247 19.7029 12.4779 19.8192 12.5162C19.9355 12.5546 20.0099 12.668 19.9989 12.79L19.9988 12.7929Z" fill="#C5D0E6"/>
</svg>
