<svg width="20" height="20" viewBox="0 0 20 20" fill="none" xmlns="http://www.w3.org/2000/svg">
<path d="M19.5999 19.6092C19.1764 20.0229 18.8471 19.9137 18.4236 19.4999L11.7707 12.9998C11.3472 12.5861 10.9177 11.931 11.3411 11.5173C11.7646 11.1036 12.3708 11.5862 12.7942 11.9999L19.5999 18.4999C20 18.9368 19.9998 19.1953 19.5999 19.6092Z" fill="#3F4354"/>
<path d="M19.6932 19.7012C19.5049 19.8852 19.2461 20.0001 18.9401 20.0001H13.2931C12.7049 20.0001 12.2344 19.5404 12.2344 18.9657C12.2344 18.391 12.7049 18.4999 13.2931 18.4999H18.4235V13.4999C18.4235 12.9252 18.3519 12.4139 18.9401 12.4139C19.5283 12.4139 19.9989 12.8737 19.9989 13.4484V18.9656C19.999 19.2416 19.8814 19.5173 19.6932 19.7012Z" fill="#3F4354"/>
<path d="M19.6008 0.390609C20.0243 0.804317 19.8705 1.08617 19.4471 1.49988L12.7942 7.99987C12.3707 8.41357 11.742 8.87323 11.3186 8.45952C10.8951 8.04581 11.3472 7.41357 11.7707 6.99987L18.4236 0.499529C18.847 0.108747 19.1772 -0.000172243 19.6008 0.390609Z" fill="#3F4354"/>
<path d="M19.6951 0.299051C19.8833 0.482978 20.001 0.73587 20.001 1.03476V6.55196C20.001 7.12667 19.5304 7.5864 18.9422 7.5864C18.354 7.5864 18.4235 7.12667 18.4235 6.55196V1.49988H13.3058C12.7176 1.49988 12.2363 1.60951 12.2363 1.0348C12.2363 0.460092 12.7069 0.000366211 13.2951 0.000366211H18.9421C19.2246 0.000366211 19.5068 0.115127 19.6951 0.299051Z" fill="#3F4354"/>
<path d="M0.399698 0.390725C0.823139 -0.0229827 1.11176 -0.0229827 1.5352 0.390725L8.18797 6.99988C8.61141 7.41359 9.2117 7.99988 8.69993 8.49988C8.18817 8.99988 7.58788 8.41359 7.16444 7.99988L0.511675 1.49988C0.111701 1.08601 -0.000276476 0.804434 0.399698 0.390725Z" fill="#3F4354"/>
<path d="M0.305711 0.298776C0.493965 0.114848 0.776252 -0.00012207 1.05873 -0.00012207H6.70573C7.29396 3.82734e-05 7.67644 0.425169 7.67644 0.999878C7.67644 1.57459 7.24114 1.49988 6.65291 1.49988H1.53529V6.55164C1.53529 7.12635 1.60813 7.49988 1.0199 7.49988C0.431671 7.49988 0 7.12635 0 6.55164V1.03444C0 0.758465 0.117625 0.482724 0.305711 0.298776Z" fill="#3F4354"/>
<path d="M0.40074 19.609C-0.0227003 19.1953 0.0895989 18.9135 0.51304 18.4998L7.16453 11.9999C7.58797 11.5862 8.23603 11.1264 8.65947 11.5401C9.08291 11.9538 8.61149 12.5862 8.18805 12.9999L1.53514 19.4998C1.11153 19.8906 0.824181 19.9998 0.40074 19.609Z" fill="#3F4354"/>
<path d="M0.30593 19.7008C0.117675 19.5169 0 19.2411 0 18.9651V13.4479C0.000164116 12.8732 0.470709 12.4135 1.05894 12.4135C1.64717 12.4135 1.53529 12.9252 1.53529 13.4999V18.4999H6.65291C7.24114 18.4999 7.76466 18.3903 7.76466 18.965C7.76483 19.5399 7.29412 19.9996 6.70589 19.9996H1.0589C0.776596 19.9996 0.494205 19.8847 0.30593 19.7008Z" fill="#3F4354"/>
</svg>
