<svg width="20" height="18" viewBox="0 0 20 18" fill="none" xmlns="http://www.w3.org/2000/svg">
<path d="M1.35235 8.63911L0.641658 8.87874L0.641884 8.87941L1.35235 8.63911ZM4.85625 1.15762L5.07572 1.87479L5.07607 1.87468L4.85625 1.15762ZM10.0012 17.0999L9.65684 17.7661C9.87362 17.8782 10.1314 17.8778 10.3478 17.765L10.0012 17.0999ZM18.6492 8.63911L17.9384 8.39968L17.9372 8.40339L18.6492 8.63911ZM15.1368 1.15762L15.3562 0.440446L15.3555 0.440206L15.1368 1.15762ZM10.0012 1.97849L9.56518 2.5887C9.82894 2.77718 10.1839 2.77487 10.4452 2.58296L10.0012 1.97849ZM13.118 4.47521L13.8445 4.66117V4.66117L13.118 4.47521ZM13.2396 4.40312L13.4256 3.67654L13.4256 3.67654L13.2396 4.40312ZM13.19 4.59688L13.376 3.8703L13.376 3.8703L13.19 4.59688ZM15.6868 7.08163L16.4329 7.00512L16.4329 7.00511L15.6868 7.08163ZM15.8857 7.06123L15.1397 7.13775L15.1397 7.13775L15.8857 7.06123ZM2.06304 8.39949C1.14881 5.68807 2.23841 2.74307 5.07572 1.87479L4.63678 0.440446C0.809283 1.61175 -0.477478 5.5596 0.641658 8.87874L2.06304 8.39949ZM10.0012 17.0999C10.3457 16.4337 10.3458 16.4337 10.3459 16.4338C10.3459 16.4338 10.3459 16.4338 10.3459 16.4338C10.3459 16.4338 10.3458 16.4337 10.3455 16.4336C10.3451 16.4334 10.3442 16.4329 10.3429 16.4322C10.3403 16.4309 10.3361 16.4287 10.3303 16.4256C10.3186 16.4195 10.3004 16.4099 10.2763 16.3969C10.2279 16.371 10.1553 16.3316 10.0616 16.2794C9.87405 16.175 9.60204 16.0193 9.26956 15.8171C8.60371 15.4121 7.69997 14.8234 6.74827 14.089C4.81542 12.5974 2.80607 10.5964 2.06281 8.39882L0.641884 8.87941C1.53403 11.5171 3.84913 13.7464 5.83188 15.2765C6.83798 16.0529 7.78982 16.6727 8.4901 17.0986C8.8407 17.3119 9.12939 17.4772 9.33178 17.5899C9.43301 17.6463 9.51272 17.6895 9.56789 17.7191C9.59548 17.7339 9.61694 17.7452 9.63189 17.7531C9.63936 17.757 9.64521 17.7601 9.64939 17.7623C9.65147 17.7634 9.65314 17.7642 9.65438 17.7649C9.65501 17.7652 9.65552 17.7655 9.65593 17.7657C9.65614 17.7658 9.65636 17.7659 9.65647 17.766C9.65666 17.7661 9.65684 17.7661 10.0012 17.0999ZM17.9372 8.40339C17.2203 10.5687 15.215 12.5679 13.2733 14.0683C12.3181 14.8064 11.4092 15.4005 10.739 15.81C10.4043 16.0145 10.1303 16.1722 9.9413 16.2781C9.84682 16.3311 9.77365 16.371 9.72485 16.3973C9.70046 16.4105 9.68215 16.4203 9.67033 16.4265C9.66442 16.4297 9.66013 16.4319 9.65751 16.4333C9.6562 16.434 9.6553 16.4345 9.65483 16.4347C9.6546 16.4348 9.65447 16.4349 9.65444 16.4349C9.65443 16.4349 9.6545 16.4349 9.65449 16.4349C9.65458 16.4348 9.6547 16.4348 10.0012 17.0999C10.3478 17.765 10.348 17.7649 10.3482 17.7648C10.3483 17.7648 10.3485 17.7647 10.3487 17.7646C10.3491 17.7644 10.3496 17.7641 10.3502 17.7638C10.3515 17.7631 10.3531 17.7622 10.3552 17.7611C10.3594 17.7589 10.3653 17.7558 10.3728 17.7519C10.3878 17.7439 10.4094 17.7324 10.4371 17.7174C10.4926 17.6875 10.5728 17.6437 10.6746 17.5867C10.8781 17.4726 11.1685 17.3054 11.521 17.09C12.225 16.6599 13.1814 16.0349 14.1904 15.2553C16.1771 13.7201 18.4957 11.489 19.3612 8.87484L17.9372 8.40339ZM14.9173 1.87479C17.7561 2.74353 18.8513 5.68982 17.9384 8.39969L19.36 8.87854C20.4786 5.55784 19.1822 1.61129 15.3562 0.440446L14.9173 1.87479ZM10.4452 2.58296C11.6265 1.7153 13.3854 1.40784 14.9181 1.87503L15.3555 0.440206C13.3861 -0.160109 11.1332 0.216501 9.55727 1.37402L10.4452 2.58296ZM5.07607 1.87468C6.60795 1.40508 8.29993 1.68452 9.56518 2.5887L10.4373 1.36829C8.78801 0.189668 6.61035 -0.164551 4.63643 0.440552L5.07607 1.87468ZM13.8445 4.66117C13.7555 5.00894 13.4015 5.21871 13.0537 5.1297L13.4256 3.67654C12.9708 3.56014 12.5078 3.83446 12.3914 4.28924L13.8445 4.66117ZM13.376 3.8703C13.7238 3.95931 13.9336 4.31339 13.8445 4.66117L12.3914 4.28924C12.275 4.74403 12.5493 5.20706 13.0041 5.32346L13.376 3.8703ZM16.4329 7.00511C16.2755 5.47061 14.9957 4.28485 13.376 3.8703L13.0041 5.32346C14.1983 5.62912 14.8648 6.4184 14.9407 7.15815L16.4329 7.00511ZM15.72 6.42482C16.0771 6.38819 16.3963 6.648 16.4329 7.00512L14.9407 7.15814C14.9886 7.62514 15.406 7.96489 15.873 7.91699L15.72 6.42482ZM15.1397 7.13775C15.103 6.78063 15.3628 6.46145 15.72 6.42482L15.873 7.91699C16.34 7.8691 16.6797 7.4517 16.6318 6.9847L15.1397 7.13775ZM13.0537 5.1297C14.3055 5.45008 15.053 6.29269 15.1397 7.13775L16.6318 6.98471C16.4635 5.34337 15.101 4.10534 13.4256 3.67654L13.0537 5.1297Z" fill="#97989D"/>
</svg>
