<svg width="20" height="20" viewBox="0 0 20 20" fill="none" xmlns="http://www.w3.org/2000/svg">
<path d="M16.6667 0H3.33326C2.4492 0 1.60142 0.35114 0.976279 0.976279C0.35114 1.60142 0 2.4492 0 3.33326V16.6667C0 17.5508 0.35114 18.3986 0.976279 19.0237C1.60142 19.6489 2.4492 20 3.33326 20H16.6667C17.5508 20 18.3986 19.6489 19.0237 19.0237C19.6489 18.3986 20 17.5508 20 16.6667V3.33326C20 2.4492 19.6489 1.60142 19.0237 0.976279C18.3986 0.35114 17.5508 0 16.6667 0V0ZM18.3334 16.6667H18.3333C18.3333 17.1086 18.1578 17.5326 17.8452 17.8451C17.5327 18.1577 17.1087 18.3332 16.6667 18.3332H3.33327C2.8913 18.3332 2.46734 18.1577 2.15484 17.8451C1.84221 17.5326 1.66671 17.1086 1.66671 16.6667V3.33319C1.66671 2.89123 1.84221 2.46727 2.15484 2.15477C2.46734 1.84213 2.8913 1.66663 3.33327 1.66663H16.6667C17.1087 1.66663 17.5327 1.84213 17.8452 2.15477C18.1578 2.46727 18.3333 2.89123 18.3333 3.33319L18.3334 16.6667Z" fill="#F4F6F8"/>
<path d="M10 4.99994C8.674 4.99994 7.40226 5.52672 6.46448 6.46436C5.52684 7.40214 5.00006 8.67388 5.00006 9.9999C5.00006 11.3259 5.52684 12.5977 6.46448 13.5354C7.40226 14.4731 8.674 14.9999 10 14.9999C11.3261 14.9999 12.5978 14.4731 13.5356 13.5354C14.4732 12.5977 15 11.3259 15 9.9999C15 8.67388 14.4732 7.40214 13.5356 6.46436C12.5978 5.52672 11.3261 4.99994 10 4.99994ZM10 13.3331C9.11596 13.3331 8.26818 12.982 7.64304 12.3568C7.0179 11.7317 6.66676 10.8839 6.66676 9.99983C6.66676 9.11577 7.0179 8.26799 7.64304 7.64285C8.26818 7.01771 9.11596 6.66657 10 6.66657C10.8841 6.66657 11.7319 7.01771 12.357 7.64285C12.9821 8.26799 13.3333 9.11577 13.3333 9.99983C13.3333 10.8839 12.9821 11.7317 12.357 12.3568C11.7319 12.982 10.8841 13.3331 10 13.3331Z" fill="#F4F6F8"/>
<path d="M16.6667 4.58318C16.6667 5.27361 16.107 5.83317 15.4167 5.83317C14.7263 5.83317 14.1667 5.27361 14.1667 4.58318C14.1667 3.8929 14.7263 3.33319 15.4167 3.33319C16.107 3.33319 16.6667 3.8929 16.6667 4.58318Z" fill="#F4F6F8"/>
</svg>
