<svg width="132" height="36" viewBox="0 0 132 36" fill="none" xmlns="http://www.w3.org/2000/svg">
<rect width="132" height="36" rx="6" fill="#EBF2FC"/>
<path d="M16.4136 24.2872C16.8044 24.6803 17.4403 24.6805 17.8314 24.2877L27.977 14.0965C28.5429 13.528 28.5433 12.6092 27.978 12.0402C27.4082 11.4667 26.4805 11.4663 25.9102 12.0394L17.1266 20.8666L14.088 17.815C13.5185 17.243 12.5925 17.243 12.023 17.815C11.4572 18.3832 11.4568 19.3018 12.0222 19.8705L16.4136 24.2872Z" fill="#5D95E8"/>
<path d="M41.162 23V13.844H42.996L44.62 18.324C44.7227 18.6133 44.8207 18.912 44.914 19.22C45.0167 19.5187 45.1147 19.8173 45.208 20.116H45.264C45.3667 19.8173 45.4647 19.5187 45.558 19.22C45.6513 18.912 45.7447 18.6133 45.838 18.324L47.42 13.844H49.268V23H47.77V18.814C47.77 18.5247 47.7793 18.212 47.798 17.876C47.826 17.5307 47.854 17.1853 47.882 16.84C47.9193 16.4947 47.952 16.182 47.98 15.902H47.924L47.182 18.03L45.684 22.146H44.718L43.206 18.03L42.478 15.902H42.422C42.45 16.182 42.478 16.4947 42.506 16.84C42.5433 17.1853 42.5713 17.5307 42.59 17.876C42.618 18.212 42.632 18.5247 42.632 18.814V23H41.162ZM53.1196 23.168C52.5223 23.168 52.0323 22.9813 51.6496 22.608C51.2763 22.2347 51.0896 21.7493 51.0896 21.152C51.0896 20.4147 51.4116 19.8453 52.0556 19.444C52.6996 19.0333 53.7263 18.7533 55.1356 18.604C55.1263 18.24 55.0283 17.9273 54.8416 17.666C54.6643 17.3953 54.3423 17.26 53.8756 17.26C53.5396 17.26 53.2083 17.3253 52.8816 17.456C52.5643 17.5867 52.2516 17.7453 51.9436 17.932L51.3556 16.854C51.7383 16.6113 52.1676 16.4013 52.6436 16.224C53.129 16.0467 53.6423 15.958 54.1836 15.958C55.0423 15.958 55.6816 16.2147 56.1016 16.728C56.531 17.232 56.7456 17.9647 56.7456 18.926V23H55.4156L55.3036 22.244H55.2476C54.9396 22.5053 54.6083 22.7247 54.2536 22.902C53.9083 23.0793 53.5303 23.168 53.1196 23.168ZM53.6376 21.908C53.9176 21.908 54.1696 21.8427 54.3936 21.712C54.627 21.572 54.8743 21.3853 55.1356 21.152V19.612C54.2023 19.7333 53.5536 19.9153 53.1896 20.158C52.8256 20.3913 52.6436 20.6807 52.6436 21.026C52.6436 21.334 52.737 21.558 52.9236 21.698C53.1103 21.838 53.3483 21.908 53.6376 21.908ZM58.6724 23V16.126H60.0024L60.1144 17.344H60.1704C60.4131 16.896 60.7071 16.5553 61.0524 16.322C61.3977 16.0793 61.7524 15.958 62.1164 15.958C62.4431 15.958 62.7044 16.0047 62.9004 16.098L62.6204 17.498C62.4991 17.4607 62.3871 17.4327 62.2844 17.414C62.1817 17.3953 62.0557 17.386 61.9064 17.386C61.6357 17.386 61.3511 17.4933 61.0524 17.708C60.7537 17.9133 60.4971 18.2773 60.2824 18.8V23H58.6724ZM63.895 23V13.116H65.477V19.29H65.519L68.067 16.126H69.831L67.479 18.926L70.069 23H68.319L66.555 20.018L65.477 21.25V23H63.895ZM76.0282 18.128L75.7062 19.248H78.0442L77.7222 18.128C77.5729 17.6427 77.4282 17.1433 77.2882 16.63C77.1576 16.1167 77.0269 15.608 76.8962 15.104H76.8402C76.7189 15.6173 76.5882 16.1307 76.4482 16.644C76.3176 17.148 76.1776 17.6427 76.0282 18.128ZM72.9622 23L75.9442 13.844H77.8482L80.8302 23H79.1222L78.4082 20.522H75.3282L74.6142 23H72.9622ZM83.3869 23.168C82.8175 23.168 82.4115 22.9953 82.1689 22.65C81.9355 22.3047 81.8189 21.8333 81.8189 21.236V13.116H83.4289V21.32C83.4289 21.516 83.4662 21.656 83.5409 21.74C83.6155 21.8147 83.6949 21.852 83.7789 21.852C83.8162 21.852 83.8489 21.852 83.8769 21.852C83.9142 21.8427 83.9655 21.8333 84.0309 21.824L84.2409 23.028C84.1475 23.0653 84.0262 23.098 83.8769 23.126C83.7369 23.154 83.5735 23.168 83.3869 23.168ZM87.1877 23.168C86.6183 23.168 86.2123 22.9953 85.9697 22.65C85.7363 22.3047 85.6197 21.8333 85.6197 21.236V13.116H87.2297V21.32C87.2297 21.516 87.267 21.656 87.3417 21.74C87.4163 21.8147 87.4957 21.852 87.5797 21.852C87.617 21.852 87.6497 21.852 87.6777 21.852C87.715 21.8427 87.7663 21.8333 87.8317 21.824L88.0417 23.028C87.9483 23.0653 87.827 23.098 87.6777 23.126C87.5377 23.154 87.3743 23.168 87.1877 23.168ZM92.3632 23V13.844H95.4572C96.0918 13.844 96.6612 13.928 97.1652 14.096C97.6785 14.264 98.0798 14.5487 98.3692 14.95C98.6678 15.342 98.8172 15.8787 98.8172 16.56C98.8172 17.26 98.6492 17.8247 98.3132 18.254C97.9865 18.6833 97.5478 18.9913 96.9972 19.178L99.1812 23H97.3612L95.3872 19.416H93.9872V23H92.3632ZM93.9872 18.128H95.2892C95.9145 18.128 96.3905 17.9973 96.7172 17.736C97.0532 17.4653 97.2212 17.0733 97.2212 16.56C97.2212 16.0373 97.0532 15.6733 96.7172 15.468C96.3905 15.2533 95.9145 15.146 95.2892 15.146H93.9872V18.128ZM103.312 23.168C102.677 23.168 102.103 23.028 101.59 22.748C101.076 22.4587 100.67 22.048 100.372 21.516C100.073 20.9747 99.9236 20.326 99.9236 19.57C99.9236 18.8233 100.073 18.1793 100.372 17.638C100.68 17.0967 101.076 16.6813 101.562 16.392C102.047 16.1027 102.556 15.958 103.088 15.958C103.713 15.958 104.236 16.098 104.656 16.378C105.076 16.6487 105.393 17.0313 105.608 17.526C105.822 18.0113 105.93 18.576 105.93 19.22C105.93 19.556 105.906 19.8173 105.86 20.004H101.492C101.566 20.6107 101.786 21.082 102.15 21.418C102.514 21.754 102.971 21.922 103.522 21.922C103.82 21.922 104.096 21.88 104.348 21.796C104.609 21.7027 104.866 21.5767 105.118 21.418L105.664 22.426C105.337 22.6407 104.973 22.818 104.572 22.958C104.17 23.098 103.75 23.168 103.312 23.168ZM101.478 18.912H104.53C104.53 18.38 104.413 17.9647 104.18 17.666C103.946 17.358 103.596 17.204 103.13 17.204C102.728 17.204 102.369 17.3533 102.052 17.652C101.744 17.9413 101.552 18.3613 101.478 18.912ZM108.969 23.168C108.372 23.168 107.882 22.9813 107.499 22.608C107.126 22.2347 106.939 21.7493 106.939 21.152C106.939 20.4147 107.261 19.8453 107.905 19.444C108.549 19.0333 109.576 18.7533 110.985 18.604C110.976 18.24 110.878 17.9273 110.691 17.666C110.514 17.3953 110.192 17.26 109.725 17.26C109.389 17.26 109.058 17.3253 108.731 17.456C108.414 17.5867 108.101 17.7453 107.793 17.932L107.205 16.854C107.588 16.6113 108.017 16.4013 108.493 16.224C108.979 16.0467 109.492 15.958 110.033 15.958C110.892 15.958 111.531 16.2147 111.951 16.728C112.381 17.232 112.595 17.9647 112.595 18.926V23H111.265L111.153 22.244H111.097C110.789 22.5053 110.458 22.7247 110.103 22.902C109.758 23.0793 109.38 23.168 108.969 23.168ZM109.487 21.908C109.767 21.908 110.019 21.8427 110.243 21.712C110.477 21.572 110.724 21.3853 110.985 21.152V19.612C110.052 19.7333 109.403 19.9153 109.039 20.158C108.675 20.3913 108.493 20.6807 108.493 21.026C108.493 21.334 108.587 21.558 108.773 21.698C108.96 21.838 109.198 21.908 109.487 21.908ZM116.93 23.168C116.071 23.168 115.385 22.8507 114.872 22.216C114.359 21.5813 114.102 20.6993 114.102 19.57C114.102 18.8233 114.237 18.1793 114.508 17.638C114.788 17.0967 115.152 16.6813 115.6 16.392C116.048 16.1027 116.519 15.958 117.014 15.958C117.406 15.958 117.737 16.028 118.008 16.168C118.288 16.2987 118.559 16.4807 118.82 16.714L118.764 15.608V13.116H120.374V23H119.044L118.932 22.258H118.876C118.624 22.51 118.33 22.7247 117.994 22.902C117.658 23.0793 117.303 23.168 116.93 23.168ZM117.322 21.838C117.835 21.838 118.316 21.5813 118.764 21.068V17.862C118.531 17.6473 118.297 17.498 118.064 17.414C117.831 17.33 117.597 17.288 117.364 17.288C116.925 17.288 116.547 17.4887 116.23 17.89C115.922 18.282 115.768 18.8373 115.768 19.556C115.768 20.2933 115.903 20.858 116.174 21.25C116.445 21.642 116.827 21.838 117.322 21.838Z" fill="#5D95E8"/>
</svg>
