<svg width="20" height="20" viewBox="0 0 20 20" fill="none" xmlns="http://www.w3.org/2000/svg">
<path d="M19.9635 9.44789L17.9395 3.95223C17.8495 3.70803 17.6021 3.54419 17.3242 3.54419L12.6928 3.54796C12.9995 3.64564 13.2655 3.83912 13.4275 4.10932C13.5502 4.31272 13.6022 4.5396 13.5908 4.76473L16.8188 4.76046L18.6574 9.72577L14.6669 9.72565C13.9309 9.72565 13.3335 10.2796 13.3335 10.9622V11.5805H6.66699V10.9622C6.66699 10.2797 6.06969 9.72565 5.33359 9.72565H1.34237L3.10438 4.77898L6.67347 4.77408C6.6602 4.54657 6.71084 4.31657 6.83417 4.11128C6.99419 3.84234 7.25683 3.65126 7.56022 3.55181L2.67205 3.55545C2.39411 3.55545 2.14677 3.71993 2.05673 3.9635L0.0341167 9.45562C0.0113723 9.51814 0 9.58368 0 9.6491V17.7634C0 18.4459 0.597297 19 1.3334 19H18.6666C19.4025 19 20 18.446 20 17.7634L19.9999 9.6491C19.9999 9.58117 19.9871 9.51375 19.9632 9.44821L19.9635 9.44789Z" fill="#347AE2"/>
<path d="M7.41975 4.41028C7.3017 4.60628 7.30914 4.84684 7.43708 5.03779L9.56776 8.19903C9.68974 8.37958 9.9031 8.48957 10.1331 8.48957C10.3631 8.48957 10.5765 8.37946 10.6984 8.19903L12.8291 5.03718C12.9571 4.84609 12.9645 4.60629 12.8464 4.40967C12.7297 4.21305 12.5065 4.09127 12.2638 4.09127H11.4672V1.61822C11.4672 1.27633 11.1692 1 10.8006 1H9.46718C9.09852 1 8.80057 1.27635 8.80057 1.61822V4.09127H8.00398C7.76057 4.09127 7.53717 4.21306 7.41982 4.4103L7.41975 4.41028Z" fill="#347AE2"/>
</svg>
