<svg width="21" height="20" viewBox="0 0 21 20" fill="none" xmlns="http://www.w3.org/2000/svg">
<path d="M19.4991 4.28066C18.825 4.5863 18.1101 4.78702 17.378 4.87619C18.1496 4.40324 18.7271 3.6589 19.0028 2.78188C18.2787 3.22355 17.4849 3.53308 16.6575 3.70052C16.1017 3.09103 15.365 2.68682 14.562 2.55071C13.7589 2.41461 12.9345 2.55425 12.2169 2.94792C11.4992 3.34159 10.9286 3.96723 10.5937 4.72758C10.2588 5.48793 10.1783 6.34039 10.3649 7.15243C8.89648 7.07699 7.45997 6.68589 6.1486 6.0045C4.83724 5.32312 3.68035 4.36669 2.75304 3.1973C2.4248 3.77514 2.25232 4.43201 2.25324 5.10065C2.25324 6.41299 2.90493 7.57237 3.8957 8.25117C3.30937 8.23225 2.73594 8.06996 2.22321 7.77782V7.82489C2.22339 8.6989 2.51848 9.54597 3.05844 10.2224C3.5984 10.8989 4.35001 11.3632 5.18583 11.5365C4.64154 11.6877 4.07082 11.71 3.51688 11.6017C3.75253 12.354 4.21184 13.012 4.83049 13.4834C5.44914 13.9549 6.19615 14.2162 6.96693 14.2309C6.20088 14.8476 5.32374 15.3034 4.38569 15.5724C3.44763 15.8413 2.46705 15.9182 1.5 15.7985C3.18812 16.9112 5.15324 17.5019 7.16032 17.5C13.9536 17.5 17.6686 11.732 17.6686 6.72976C17.6686 6.56685 17.6641 6.40213 17.6571 6.24103C18.3802 5.70538 19.0043 5.04184 19.5 4.28157L19.4991 4.28066Z" fill="#3F4354"/>
</svg>
