<svg width="24" height="24" viewBox="0 0 24 24" fill="none" xmlns="http://www.w3.org/2000/svg">
<rect width="24" height="24" rx="12" fill="#1E252B"/>
<path d="M11.9995 6.4473C11.6701 6.4473 11.4033 6.18622 11.4033 5.86424V4.58306C11.4033 4.26094 11.6703 4 11.9995 4C12.3287 4 12.5956 4.26107 12.5956 4.58306V5.86424C12.5956 6.18636 12.3287 6.4473 11.9995 6.4473Z" fill="#2C353D"/>
<path d="M11.9995 19.9999C11.6701 19.9999 11.4033 19.7388 11.4033 19.417V18.1357C11.4033 17.8136 11.6703 17.5527 11.9995 17.5527C12.3287 17.5527 12.5956 17.8136 12.5956 18.1357V19.417C12.5956 19.7389 12.3287 19.9999 11.9995 19.9999Z" fill="#2C353D"/>
<path d="M17.4622 9.566C17.2542 9.566 17.0521 9.45936 16.9424 9.26936C16.7805 8.98917 16.8816 8.63309 17.1685 8.47474L18.3093 7.84492C18.5959 7.68658 18.9598 7.78585 19.1216 8.06604C19.2835 8.34634 19.1822 8.70231 18.8954 8.86065L17.7549 9.49035C17.662 9.54172 17.5614 9.56601 17.4622 9.56601L17.4622 9.566Z" fill="#2C353D"/>
<path d="M5.39651 16.2299C5.18867 16.2299 4.98625 16.1233 4.87674 15.9333C4.71517 15.6528 4.81633 15.2971 5.10295 15.1387L6.24378 14.509C6.53099 14.3506 6.89438 14.4497 7.05606 14.7301C7.21774 15.0107 7.1167 15.3664 6.82996 15.5248L5.68913 16.1545C5.59645 16.2059 5.49601 16.2299 5.3965 16.2299L5.39651 16.2299Z" fill="#2C353D"/>
<path d="M6.53633 9.56614C6.43706 9.56614 6.33626 9.54207 6.24394 9.49083L5.1031 8.86101C4.81648 8.70266 4.71498 8.34703 4.87689 8.06639C5.03881 7.7862 5.40221 7.68682 5.68941 7.84528L6.83024 8.4751C7.11686 8.6331 7.21813 8.98908 7.05634 9.26948C6.94647 9.45927 6.74451 9.56612 6.53632 9.56612L6.53633 9.56614Z" fill="#2C353D"/>
<path d="M18.6019 16.23C18.5026 16.23 18.4017 16.2059 18.3094 16.1547L17.1683 15.5246C16.8818 15.3666 16.7804 15.0109 16.9424 14.7302C17.1041 14.4499 17.4676 14.3505 17.7547 14.5091L18.8958 15.1386C19.1823 15.2971 19.2839 15.6527 19.1216 15.9332C19.0122 16.1235 18.8104 16.23 18.6019 16.23L18.6019 16.23Z" fill="#2C353D"/>
<path d="M12.0001 8C9.79087 8 8 9.79092 8 11.9999C8 14.2091 9.79092 16 12.0001 16C14.2093 16 16 14.2091 16 11.9999C16 9.79082 14.2093 8 12.0001 8ZM14.8046 12.0341C14.7918 12.0357 14.779 12.0365 14.7665 12.0365C14.6205 12.0365 14.4934 11.928 14.4742 11.7791C14.315 10.5433 13.2989 9.5688 12.0576 9.46186C11.8954 9.448 11.775 9.30516 11.7892 9.14266C11.803 8.98045 11.9456 8.86054 12.1083 8.87401C13.624 9.00441 14.8653 10.194 15.0595 11.7033C15.0802 11.8655 14.9661 12.0134 14.8045 12.0341L14.8046 12.0341Z" fill="#2C353D"/>
</svg>
